<svg width="100%" height="100%" id="svg" viewBox="0 0 1440 390" xmlns="http://www.w3.org/2000/svg" class="transition duration-300 ease-in-out delay-150"><path d="M 0,400 L 0,60 C 59.218825145997954,69.47303332188251 118.43765029199591,78.94606664376502 188,80 C 257.5623497080041,81.05393335623498 337.4682239780144,73.68876674682241 411,60 C 484.5317760219856,46.3112332531776 551.6894537959464,26.298866368945383 625,33 C 698.3105462040536,39.70113363105462 777.7739608382,73.11576777739609 840,77 C 902.2260391618,80.88423222260391 947.2147028512538,55.23806252147029 1015,55 C 1082.7852971487462,54.76193747852971 1173.3672277567844,79.93198213672277 1248,85 C 1322.6327722432156,90.06801786327723 1381.3163861216078,75.03400893163862 1440,60 L 1440,400 L 0,400 Z" stroke="none" stroke-width="0" fill="#035487" fill-opacity="0.265" class="transition-all duration-300 ease-in-out delay-150 path-0"></path><path d="M 0,400 L 0,140 C 82.8052215733425,152.63071109584337 165.610443146685,165.2614221916867 237,163 C 308.389556853315,160.7385778083133 368.3634489866026,143.58502232909652 428,134 C 487.6365510133974,124.41497767090348 546.9357609069049,122.39848849192717 610,131 C 673.0642390930951,139.60151150807283 739.8935073857781,158.82102370319478 800,151 C 860.1064926142219,143.17897629680522 913.4902095499829,108.3174166952937 992,112 C 1070.5097904500171,115.6825833047063 1174.1456544142907,157.90930951563038 1253,169 C 1331.8543455857093,180.09069048436962 1385.9271727928547,160.0453452421848 1440,140 L 1440,400 L 0,400 Z" stroke="none" stroke-width="0" fill="#035487" fill-opacity="0.4" class="transition-all duration-300 ease-in-out delay-150 path-1"></path><path d="M 0,400 L 0,220 C 62.902095499828235,214.9336997595328 125.80419099965647,209.8673995190656 187,218 C 248.19580900034353,226.1326004809344 307.6853315012023,247.46410168327037 385,239 C 462.3146684987977,230.53589831672963 557.4544829955342,192.27619374785297 636,191 C 714.5455170044658,189.72380625214703 776.4967365166609,225.43112332531774 837,241 C 897.5032634833391,256.56887667468226 956.558570937822,251.99931295087598 1027,246 C 1097.441429062178,240.00068704912402 1179.2689797320509,232.5716248711783 1250,228 C 1320.7310202679491,223.4283751288217 1380.3655101339746,221.71418756441085 1440,220 L 1440,400 L 0,400 Z" stroke="none" stroke-width="0" fill="#035487" fill-opacity="0.53" class="transition-all duration-300 ease-in-out delay-150 path-2"></path><path d="M 0,400 L 0,300 C 82.0783236001374,295.4173823428375 164.1566472002748,290.834764685675 233,294 C 301.8433527997252,297.165235314325 357.45173479903815,308.0783236001374 420,310 C 482.54826520096185,311.9216763998626 552.0364136035727,304.85194091377537 621,309 C 689.9635863964273,313.14805908622463 758.4026107866713,328.5139127447613 819,320 C 879.5973892133287,311.4860872552387 932.3531432497423,279.09240810717966 993,271 C 1053.6468567502577,262.90759189282034 1122.1848162143592,279.11645482652006 1198,288 C 1273.8151837856408,296.88354517347994 1356.9075918928204,298.44177258673994 1440,300 L 1440,400 L 0,400 Z" stroke="none" stroke-width="0" fill="#035487" fill-opacity="1" class="transition-all duration-300 ease-in-out delay-150 path-3"></path></svg>